<svg width="140" height="140" viewBox="0 0 140 140" fill="none" xmlns="http://www.w3.org/2000/svg" role="img" aria-labelledby="title">
  <title id="title">Theresia Mark</title>
  <g fill="#10120D">
    <rect x="20" y="20" width="9" height="9"/>
    <rect x="43" y="20" width="9" height="9"/>
    <rect x="66" y="20" width="9" height="9"/>
    <rect x="89" y="20" width="9" height="9"/>
    <rect x="112" y="20" width="9" height="9"/>
    <rect x="20" y="43" width="9" height="9"/>
    <rect x="43" y="43" width="9" height="9"/>
    <rect x="66" y="43" width="9" height="9"/>
    <rect x="89" y="43" width="9" height="9"/>
    <rect x="112" y="43" width="9" height="9"/>
    <rect x="20" y="66" width="9" height="9"/>
    <rect x="43" y="66" width="9" height="9"/>
    <rect x="66" y="66" width="9" height="9"/>
    <rect x="89" y="66" width="9" height="9"/>
    <rect x="112" y="66" width="9" height="9"/>
    <rect x="20" y="89" width="9" height="9"/>
    <rect x="43" y="89" width="9" height="9"/>
    <rect x="66" y="89" width="9" height="9"/>
    <rect x="89" y="89" width="9" height="9"/>
    <rect x="112" y="89" width="9" height="9"/>
    <rect x="20" y="112" width="9" height="9"/>
    <rect x="43" y="112" width="9" height="9"/>
    <rect x="66" y="112" width="9" height="9"/>
    <rect x="89" y="112" width="9" height="9"/>
    <rect x="112" y="112" width="9" height="9"/>
  </g>
  <g fill="#CFFF3C">
    <rect x="43" y="43" width="55" height="9"/>
    <rect x="39" y="40" width="17" height="15"/>
    <rect x="85" y="40" width="17" height="15"/>
    <rect x="66" y="43" width="9" height="78"/>
    <rect x="61" y="65" width="19" height="13"/>
    <rect x="61" y="88" width="19" height="13"/>
    <rect x="61" y="111" width="19" height="13"/>
  </g>
</svg>
